<svg width="45" height="45" viewBox="0 0 45 45" fill="none" xmlns="http://www.w3.org/2000/svg">
<path fill-rule="evenodd" clip-rule="evenodd" d="M5.625 35.1562C5.625 34.3796 6.2546 33.75 7.03125 33.75H37.9688C38.7454 33.75 39.375 34.3796 39.375 35.1562C39.375 35.9329 38.7454 36.5625 37.9688 36.5625H7.03125C6.2546 36.5625 5.625 35.9329 5.625 35.1562Z" fill="#F2F2F2"/>
<path fill-rule="evenodd" clip-rule="evenodd" d="M5.625 26.7188C5.625 25.9421 6.2546 25.3125 7.03125 25.3125H37.9688C38.7454 25.3125 39.375 25.9421 39.375 26.7188C39.375 27.4954 38.7454 28.125 37.9688 28.125H7.03125C6.2546 28.125 5.625 27.4954 5.625 26.7188Z" fill="#F2F2F2"/>
<path fill-rule="evenodd" clip-rule="evenodd" d="M5.625 18.2812C5.625 17.5046 6.2546 16.875 7.03125 16.875H37.9688C38.7454 16.875 39.375 17.5046 39.375 18.2812C39.375 19.0579 38.7454 19.6875 37.9688 19.6875H7.03125C6.2546 19.6875 5.625 19.0579 5.625 18.2812Z" fill="#F2F2F2"/>
<path fill-rule="evenodd" clip-rule="evenodd" d="M5.625 9.84375C5.625 9.0671 6.2546 8.4375 7.03125 8.4375H37.9688C38.7454 8.4375 39.375 9.0671 39.375 9.84375C39.375 10.6204 38.7454 11.25 37.9688 11.25H7.03125C6.2546 11.25 5.625 10.6204 5.625 9.84375Z" fill="#F2F2F2"/>
</svg>
