<svg width="24" height="24" viewBox="0 0 24 24" fill="none" xmlns="http://www.w3.org/2000/svg">
<path d="M23.5033 11.8143L12.5988 0.917785C12.5203 0.839116 12.427 0.776704 12.3244 0.73412C12.2217 0.691536 12.1116 0.669617 12.0005 0.669617C11.8893 0.669617 11.7793 0.691536 11.6766 0.73412C11.574 0.776704 11.4807 0.839116 11.4022 0.917785L0.497704 11.8143C0.180021 12.132 0 12.5635 0 13.0136C0 13.9481 0.759793 14.7079 1.69431 14.7079H2.84327V22.4832C2.84327 22.9518 3.22184 23.3304 3.69042 23.3304H10.3062V17.4003H13.2712V23.3304H20.3106C20.7792 23.3304 21.1577 22.9518 21.1577 22.4832V14.7079H22.3067C22.7567 14.7079 23.1883 14.5305 23.5059 14.2102C24.1651 13.5484 24.1651 12.4762 23.5033 11.8143Z" fill="#373A3C"/>
</svg>
