<svg width="26" height="26" viewBox="0 0 26 26" fill="none" xmlns="http://www.w3.org/2000/svg">
<path d="M0 12.48C0 6.59685 0 3.65531 1.82765 1.82765C3.65531 0 6.59685 0 12.48 0H13.52C19.4032 0 22.3447 0 24.1724 1.82765C26 3.65531 26 6.59685 26 12.48V13.52C26 19.4032 26 22.3447 24.1724 24.1724C22.3447 26 19.4032 26 13.52 26H12.48C6.59685 26 3.65531 26 1.82765 24.1724C0 22.3447 0 19.4032 0 13.52V12.48Z" fill="black"/>
<path d="M13.7896 18.72C7.74899 18.72 4.30359 14.6209 4.16003 7.80005H7.18584C7.28523 12.8064 9.51588 14.927 11.2828 15.3643V7.80005H14.132V12.1178C15.8768 11.9319 17.7098 9.96437 18.3282 7.80005H21.1773C20.7025 10.4672 18.7147 12.4348 17.3012 13.2437C18.7147 13.8995 20.9787 15.6157 21.84 18.72H18.7037C18.0301 16.6432 16.3517 15.0363 14.132 14.8177V18.72H13.7896Z" fill="white"/>
</svg>
